inDegrees=no
num_controls=7
num_derivatives=13
num_iterations=216
num_multipliers=7
num_parameters=0
num_slacks=7
num_states=26
objective=5.587239
objective_accelerations=0.431103
objective_balance=0.036354
objective_effort=0.437885
objective_height=4.585959
objective_ligament=0.095938
solver_duration=2341.068047
status=Solve_Succeeded
success=true
DataType=double
version=3
OpenSimVersion=4.4-2022-07-23-0e9fedc
endheader
time	/jointset/ground_pelvis/pelvis_tilt/value	/jointset/ground_pelvis/pelvis_tx/value	/jointset/ground_pelvis/pelvis_ty/value	/jointset/hip_l/hip_flexion_l/value	/jointset/hip_l/hip_adduction_l/value	/jointset/hip_l/hip_rotation_l/value	/jointset/back/lumbar_extension/value	/jointset/patellofemoral_l/patellar_flexion_l/value	/jointset/knee_l/knee_flexion_l/value	/jointset/knee_l/knee_adduction_l/value	/jointset/knee_l/knee_rotation_l/value	/jointset/ankle_l/ankle_angle_l/value	/jointset/subtalar_l/subtalar_angle_l/value	/jointset/ground_pelvis/pelvis_tilt/speed	/jointset/ground_pelvis/pelvis_tx/speed	/jointset/ground_pelvis/pelvis_ty/speed	/jointset/hip_l/hip_flexion_l/speed	/jointset/hip_l/hip_adduction_l/speed	/jointset/hip_l/hip_rotation_l/speed	/jointset/back/lumbar_extension/speed	/jointset/patellofemoral_l/patellar_flexion_l/speed	/jointset/knee_l/knee_flexion_l/speed	/jointset/knee_l/knee_adduction_l/speed	/jointset/knee_l/knee_rotation_l/speed	/jointset/ankle_l/ankle_angle_l/speed	/jointset/subtalar_l/subtalar_angle_l/speed	/forceset/tau_hip_flexion_l	/forceset/tau_hip_adduction_l	/forceset/tau_hip_rotation_l	/forceset/tau_knee_flexion_l	/forceset/tau_ankle_angle_l	/forceset/tau_subtalar_angle_l	/forceset/tau_lumbar_extension	lambda_cid13_p0	lambda_cid13_p1	lambda_cid13_p2	lambda_cid13_p3	lambda_cid13_p4	lambda_cid13_p5	lambda_cid14_p0	/jointset/ground_pelvis/pelvis_tilt/accel	/jointset/ground_pelvis/pelvis_tx/accel	/jointset/ground_pelvis/pelvis_ty/accel	/jointset/hip_l/hip_flexion_l/accel	/jointset/hip_l/hip_adduction_l/accel	/jointset/hip_l/hip_rotation_l/accel	/jointset/back/lumbar_extension/accel	/jointset/patellofemoral_l/patellar_flexion_l/accel	/jointset/knee_l/knee_flexion_l/accel	/jointset/knee_l/knee_adduction_l/accel	/jointset/knee_l/knee_rotation_l/accel	/jointset/ankle_l/ankle_angle_l/accel	/jointset/subtalar_l/subtalar_angle_l/accel	gamma_cid13_p0	gamma_cid13_p1	gamma_cid13_p2	gamma_cid13_p3	gamma_cid13_p4	gamma_cid13_p5	gamma_cid14_p0
1.5	0.02890155231550239	-0.003344608197498719	0.8708241151551404	0.580742564118983	-0.3179607019609315	-0.1622649747390975	-0.7835063638202658	0.6870731131468919	0.6870731131468925	-0.1093742342131038	-0.1745321016754404	0.1295401501937484	0.02090337000393957	0.2692583188229997	0.2277177847976145	0.340074407710634	-1.735328656887551	0.09582457743887714	-0.5761414697820672	0.8433589015750367	-1.76207052134877	-1.762070521348774	-0.1256726094064607	1.405377995973711e-05	-0.3987086400548411	-0.0298715180630569	-0.1778607409427665	0.0173445417958428	-0.004434691042177545	-0.211804572125744	0.06428614342272326	0.04417702311658533	0.2661550251243561	-21.70732604048653	-18.11860329808155	5.556399738495402	-6.132422383478603	-673.3399104425704	-81.58172738026589	-18.4270344212611	-0.0943097272042632	0.5491657395923455	-0.5200004542412499	-0.5231963019451938	0.3728935573574815	-0.2591237389748886	1.73460348355821	-0.7744871124545829	-0.7744871124545826	-0.2918980447379675	0.03555550804540823	-0.1361094222659086	0.3636210898017739	5.594471817100986e-08	1.257071887659954e-06	-4.545604978987863e-08	1.571849523748532e-07	1.469454729695176e-07	3.883766614557311e-07	1.315328848081465e-07
1.51	0.03158916157212915	-0.00104019708979233	0.8741982017205411	0.5633649711491355	-0.3169843090778722	-0.1680404081826899	-0.7749872662630742	0.6694159126478646	0.669415912647865	-0.1106455563507107	-0.1745320318151865	0.1255467473899042	0.02062240027063383	0.2682313110673853	0.2331388656192588	0.334678111682657	-1.739972557929995	0.09944811324913728	-0.5788846590042221	0.8603427117721542	-1.769130413072916	-1.769130413072922	-0.1285894801047368	1.35504203476849e-07	-0.3999015195844886	-0.02631005703580378	-0.1712464268189839	0.01648528687717172	-0.004375927425892888	-0.2087175068976806	0.0650852234433117	0.04330772409532555	0.259700408722239	-21.27870613487971	-17.84216261786827	5.542080164868668	-6.091031365765358	-669.7554674993131	-81.40245625872083	-19.00099357957082	-0.111737895119903	0.534781527328996	-0.5591438279502561	-0.4023910623373751	0.3560276512734884	-0.2727231956898615	1.662585074125049	-0.6358897809442409	-0.6358897809445284	-0.291008471779971	-0.01982941605155731	-0.1002795456863489	0.3540476514751614	3.311530316303037e-08	1.297322786532497e-06	3.183208718984677e-08	1.786533111738728e-07	1.13988578280396e-07	3.751591124349067e-07	1.251954019553031e-07
1.52	0.03426553243212396	0.001317665280906217	0.8775163853954872	0.5459474583574752	-0.3159718920250276	-0.1738414348548748	-0.7663018675466441	0.6516952833158856	0.6516952833158866	-0.1119459325731814	-0.174532093921823	0.1215435353252891	0.02037737295605824	0.2670106394965753	0.2384080373960462	0.3288938296197064	-1.743312621250174	0.1030294113959256	-0.5812601155005394	0.8766191334227328	-1.774756287939046	-1.774756287939054	-0.1314834263793143	-1.233959816940074e-05	-0.4006704922090236	-0.02268303431702744	-0.1646321126952006	0.01562603195850102	-0.00431716380960331	-0.2056304416696173	0.0658843034639002	0.04243842507406615	0.2532457923201222	-20.8545232585018	-17.56601601651389	5.529030867431497	-6.061630503238247	-666.2558081271887	-81.2477541098672	-19.55513574693267	-0.1330424902433734	0.518783930620946	-0.597597661235958	-0.2624287574921161	0.3644460246631236	-0.1855771938073214	1.593125774250466	-0.4876837408514089	-0.4876837408514086	-0.2873131599982275	0.03584414272207767	-0.05132804124341151	0.3767334281064139	2.536825651272995e-08	1.305597807994521e-06	4.045813811028392e-08	1.848585462158663e-07	1.028173381805909e-07	3.732149791185789e-07	1.243516976280553e-07
1.53	0.0369286949940219	0.003727405206596334	0.8807748388209347	0.5285031315163957	-0.3149239120843751	-0.1796642014486573	-0.7574573581592313	0.6339256098132695	0.6339256098132713	-0.1132752657479513	-0.1745321438531085	0.1175347534235591	0.02016890230573459	0.2655868545961484	0.2435085243493594	0.3227373696169979	-1.745325358602941	0.1065583479980472	-0.5832347547264488	0.892151493021287	-1.778930342282579	-1.77893034228258	-0.1343730558792408	2.270651987590992e-07	-0.4010134223393815	-0.01900032749243215	-0.1578831064419978	0.01459709475479583	-0.004316337751024202	-0.2027034685906418	0.06678742227193449	0.04155479813196516	0.2466818763309216	-20.40610323874041	-17.28643174062237	5.513767034749322	-6.003050870581536	-662.86545971165	-81.12147257727774	-20.08609053496859	-0.1523059400952569	0.5010014661479676	-0.6335688067589547	-0.1365964501894644	0.3457313044564469	-0.1945223272539589	1.51360339688149	-0.3450821395641074	-0.3450821395630195	-0.2880573629096709	-0.01637859056636021	-0.01487071948117208	0.3654613429964017	3.364622624246337e-08	1.279898459707869e-06	-2.38692774072719e-08	1.748467122660196e-07	1.147933560819344e-07	3.832488499882789e-07	1.29345132984253e-07
1.54	0.03957656781688507	0.006187214079511882	0.8839699479189611	0.5110454972565849	-0.3138409200124076	-0.1855049374427527	-0.7484614627069881	0.6161216325955278	0.6161216325955277	-0.1146331491213059	-0.1745321364214998	0.1135247231764158	0.01999754313032896	0.2639526916896041	0.2484218268411324	0.3162249641354641	-1.745974104996528	0.1100318376589593	-0.5848539955632061	0.9068963463887844	-1.781617030964509	-1.781617030964503	-0.1371934660959589	-8.670198551572818e-07	-0.4009201612917065	-0.01526073933342414	-0.1511341001887924	0.01356815755109283	-0.004315511692466575	-0.1997764955116638	0.06769054107996986	0.04067117118986748	0.2401179603417223	-19.96250562001377	-17.00643607330051	5.498932427288284	-5.955314851974026	-659.5656833039343	-81.02151719819557	-20.59048806978064	-0.1751180914668556	0.4813470383128781	-0.6687867570010162	0.01036943434375479	0.3533566364212301	-0.1144975159769078	1.435624528039115	-0.1902106085309956	-0.1902106085309942	-0.2734693033565138	0.0331119930376562	0.0359101943631953	0.3881096949889545	3.43227294124907e-08	1.266926558972933e-06	-4.982900639799847e-08	1.702630190689921e-07	1.191242988753455e-07	3.849437528663468e-07	1.30488762808289e-07
1.55	0.04220702890211631	0.008695158036605382	0.8870982132737819	0.4935882688496534	-0.3127234817773241	-0.1913600424294419	-0.7393221908795141	0.5982982848988068	0.598298284898807	-0.1160188912199162	-0.1745321689900234	0.1095178095880004	0.01986385817413207	0.262105183100946	0.2531291128976988	0.3093749689345544	-1.745239455993995	0.1134410637651275	-0.5860983401444666	0.9208097286090987	-1.782798359790025	-1.782798359790025	-0.1399515242651977	-3.906244630068448e-06	-0.4003908064378339	-0.01147283994116253	-0.1442867903515051	0.0124265669539453	-0.004364845604272923	-0.196981515440686	0.06865941413578809	0.03973649144628561	0.2334796370002361	-19.51086243005725	-16.70284245576083	5.47709775342616	-5.860219732947018	-656.4104224952515	-80.91082889184494	-21.06495357488687	-0.1947279141203287	0.4597762096382176	-0.7010541539042705	0.1398193488903394	0.332332640205136	-0.1189949454152225	1.346951494492103	-0.04399680468494199	-0.04399680468589239	-0.2762491120549156	-0.01676880097648315	0.07224368508918828	0.3744440494241257	2.62410211115528e-08	1.268618891286714e-06	-3.158248786868501e-08	1.719334880436909e-07	1.146467855661394e-07	3.770307143627524e-07	1.271967471278782e-07
